<svg xmlns="http://www.w3.org/2000/svg" viewBox="0 0 516.61 348.41"><defs><style>.cls-1{fill:#38676d;}</style></defs><title>inicio-nosotros_1</title><g id="Capa_2" data-name="Capa 2"><g id="AcercaNosotros"><path class="cls-1" d="M259.81,181.37c-48.51,0-87.14-37.68-88.55-85.34-1.61-54.77,47.35-99.7,99-90.9,38.87,6.62,67.9,34.66,74.25,71.69,8.05,47-20.35,91.59-65.26,102.41A73.13,73.13,0,0,1,259.81,181.37Z"/><path class="cls-1" d="M266.1,348.37c13.57-34.43,26.68-67.67,39.79-100.91,6.9-17.5,14-34.9,20.58-52.54,2.06-5.56,4-6,8.64-3.21,51.44,31.21,80.88,77.86,87.45,140.45,1.6,15.32,1.13,16-10.47,16.09C363.91,348.53,315.73,348.37,266.1,348.37Z"/><path class="cls-1" d="M250,348.36c-48.39,0-96.58.16-144.76-.11-12-.07-12.09-.74-10.52-15.92,6.15-59.67,33.45-105.22,81.4-136.87,2.2-1.45,4.63-2.51,6.79-4,3.69-2.59,5.72-2,7.54,2.63q29.82,76.32,59.93,152.5C250.5,346.79,250.3,347.14,250,348.36Z"/><path class="cls-1" d="M331,173c5.64-7.32,10.12-16.5,16.71-21.88,7.22-5.91,15.89,3.5,24.38,4.63,18.67,2.49,36.2-.22,53-8.83a10.59,10.59,0,0,1,10.49-.11C482,169.36,508.66,207.73,516,261.27c1.56,11.45,1,12-10,12.06-26,.21-52,0-78,.14-3.14,0-5.36-.54-6.86-4-19-43.32-49.39-74.78-89.56-95.87C331.34,173.52,331.18,173.22,331,173Z"/><path class="cls-1" d="M385.85,0c36.31-.48,67.3,30.2,67.84,67.1.57,38.47-28.24,69.33-65.54,70.14a97.34,97.34,0,0,1-12.08-.4c-6.05-.63-12.65-1.47-17.18-5.39-5.65-4.89.47-11,1.26-16.43q6.9-47.73-21.81-84.75c-4-5.11-3.62-7.53.87-11.57C352.73,6.58,368.13.18,385.85,0Z"/><path class="cls-1" d="M258.7,324.45c-8.63-23.27-16.51-44.51-24.4-65.74-2.08-5.62.55-10.88,1.28-16.19,1.79-13,4.63-25.8,6.27-38.79.7-5.51,2.51-6.41,7.13-5.52a53.57,53.57,0,0,0,12.89.87c13-.72,12.92-.85,14.94,12.23,1.85,12.05,3.42,24.17,5.85,36.09a28.4,28.4,0,0,1-1.6,16.77C273.6,283.62,266.53,303.23,258.7,324.45Z"/><path class="cls-1" d="M185.63,173c-5.65-7.32-10.13-16.5-16.72-21.88-7.22-5.91-15.89,3.5-24.37,4.63-18.68,2.49-36.21-.22-53-8.83a10.59,10.59,0,0,0-10.49-.11C34.58,169.36,8,207.73.65,261.27c-1.57,11.45-1,12,10,12.06,26,.21,52,0,78,.14,3.14,0,5.35-.54,6.86-4,19-43.32,49.39-74.78,89.55-95.87C185.27,173.52,185.43,173.22,185.63,173Z"/><path class="cls-1" d="M131.38,0c-36.32-.48-67.31,30.2-67.85,67.1-.56,38.47,28.25,69.33,65.55,70.14a97.47,97.47,0,0,0,12.08-.4c6-.63,12.64-1.47,17.17-5.39,5.65-4.89-.47-11-1.25-16.43q-6.92-47.73,21.8-84.75c4-5.11,3.63-7.53-.87-11.57C164.49,6.58,149.1.18,131.38,0Z"/></g></g></svg>