<svg xmlns="http://www.w3.org/2000/svg" viewBox="0 0 224 224"><defs><style>.cls-1{fill:#627f9a;}.cls-2,.cls-3{fill:#fff;}.cls-3{font-size:42.18px;font-family:Roboto-Bold, Roboto;font-weight:700;}</style></defs><title>inicio-hosting</title><g id="Capa_2" data-name="Capa 2"><g id="Capa_1-2" data-name="Capa 1"><circle class="cls-1" cx="112" cy="112" r="112"/><path class="cls-2" d="M112,40a72,72,0,1,0,72,72A72,72,0,0,0,112,40Zm0,140a68,68,0,1,1,68-68A68,68,0,0,1,112,180Z"/><path class="cls-2" d="M112,40c-29.27,0-53,32.24-53,72s23.73,72,53,72,53-32.24,53-72S141.27,40,112,40Zm0,140c-27.7,0-50.16-30.44-50.16-68S84.3,44,112,44s50.16,30.44,50.16,68S139.7,180,112,180Z"/><path class="cls-2" d="M113.5,40C99.42,40,88,72.24,88,112s11.42,72,25.5,72S139,151.76,139,112,127.58,40,113.5,40Zm0,140c-12.8,0-23.18-30.44-23.18-68S100.7,44,113.5,44s23.18,30.44,23.18,68S126.3,180,113.5,180Z"/><rect class="cls-2" x="27" y="81" width="170" height="62" rx="12" ry="12"/><rect class="cls-1" x="31" y="84" width="162" height="56" rx="12" ry="12"/><text class="cls-3" transform="translate(44 130.26) scale(1.22 1)">WWW</text></g></g></svg>