<svg xmlns="http://www.w3.org/2000/svg" viewBox="0 0 100 100"><defs><style>.cls-1{fill:#627f9a;}.cls-2{fill:#fff;}</style></defs><title>inicio-infraestructura</title><g id="Capa_2" data-name="Capa 2"><g id="Capa_1-2" data-name="Capa 1"><circle class="cls-1" cx="50" cy="50" r="50"/><path class="cls-2" d="M64.63,50.4q0,12.43,0,24.86c0,2.24-.7,2.95-2.93,2.95q-11.36,0-22.7,0c-2.15,0-2.86-.71-2.86-2.85q0-25,0-50c0-2.19.64-2.84,2.84-2.84q11.35,0,22.7,0c2.3,0,2.95.64,2.95,2.9Q64.65,37.89,64.63,50.4ZM50.33,28.12c-2.47,0-4.93,0-7.4,0-1.12,0-2,.28-2,1.53s.92,1.49,2,1.49H58.12c1,0,1.76-.44,1.79-1.49s-.78-1.53-1.86-1.52C55.48,28.14,52.91,28.12,50.33,28.12Zm.06,7.11c-2.48,0-5,0-7.42,0-1.11,0-2.07.24-2.08,1.49s.94,1.58,2,1.58h15c1.11,0,2-.38,2-1.62s-.9-1.46-2-1.45C55.43,35.25,52.91,35.23,50.39,35.23Zm0,10.16c2.48,0,5,0,7.42,0,1.11,0,2-.33,2-1.56s-.94-1.51-2-1.51c-4.94,0-9.88,0-14.83,0-1.09,0-2.09.19-2.14,1.43s1,1.64,2.13,1.64C45.49,45.38,48,45.39,50.43,45.39Zm3.74,20.88a3.76,3.76,0,1,0-3.78,3.84A3.84,3.84,0,0,0,54.17,66.27Z"/><path class="cls-2" d="M67.78,33.33V29.08c4.9,0,9.73,0,14.56,0A1.65,1.65,0,0,1,84,30.69a9.23,9.23,0,0,1,0,1.39V68.55c0,2.56-.35,2.89-3,2.89H67.81V46.5a17.85,17.85,0,0,1,3.74-.12q3.54,0,7.1,0c.86,0,1.66-.14,1.64-1.15s-.78-1-1.58-1c-3.09,0-6.18,0-9.27,0H67.81V41.05H78.69c.86,0,1.64-.25,1.59-1.24s-.76-1.11-1.57-1.11H67.85a10.78,10.78,0,0,1-.1-3.13h7.86c1.08,0,2.17,0,3.25,0,.77,0,1.41-.24,1.43-1s-.64-1.16-1.48-1.16c-3.45,0-6.9,0-10.35,0C68.26,33.39,68.06,33.35,67.78,33.33Zm5.34,26.33a2.85,2.85,0,0,0-2.94,2.73,2.94,2.94,0,0,0,2.84,3,3,3,0,0,0,3-2.94A2.91,2.91,0,0,0,73.12,59.66Z"/><path class="cls-2" d="M33,71.71c-4.8,0-9.48,0-14.16,0-1.36,0-1.9-.75-1.89-2.07,0-3.81,0-7.62,0-11.43q0-13.29,0-26.57c0-2,.49-2.52,2.55-2.52H33V33.4H22.59c-.89,0-2-.11-1.93,1.16s1.14,1.09,2,1.09c2.94,0,5.87,0,8.81,0a2.75,2.75,0,0,1,1.56.18v3.06H24.26c-.67,0-1.34,0-2,0-.83,0-1.64.08-1.6,1.16s.78,1.06,1.56,1.06H33a12.33,12.33,0,0,1,.12,3,15,15,0,0,1-3.66.15c-2.37,0-4.74,0-7.11,0-.85,0-1.65.16-1.65,1.17s.85,1.16,1.66,1.17H33Zm-5.17-12A2.8,2.8,0,0,0,25,62.43a2.88,2.88,0,1,0,5.75,0A2.81,2.81,0,0,0,27.84,59.66Z"/></g></g></svg>