<svg xmlns="http://www.w3.org/2000/svg" viewBox="0 0 746.2 662.17"><defs><style>.cls-1{fill:#445280;}.cls-2{fill:#f6f6f7;}.cls-3{fill:#8991aa;}.cls-4{fill:#3395d0;}.cls-5{font-size:144.63px;fill:#002a46;font-family:Arial-BoldMT, Arial;font-weight:700;}.cls-6{letter-spacing:-0.02em;}</style></defs><title>Logo</title><g id="Capa_2" data-name="Capa 2"><g id="Capa_1-2" data-name="Capa 1"><path class="cls-1" d="M543.68,177.34c-23.16,16.18-48,29.52-72.21,44-11.16,6.68-22.64,12.82-34,19.21,3.53-15,2.85-30.93,8.88-45.51.77-1.87,1.23-5.35.23-6.24-7.74-6.84-4.34-17.18-8.73-26.84-.25,6.5-2.73,9.89-7.54,10.74-6.23,1.09-6.58,5.12-6,10.29,2.16,20.43,4.12,40.87,6.16,61.31q-24.49,14-49,28c-2.55,1.47-4.88,2.17-7.77.57-32.11-17.71-64.5-34.92-95.6-54.42-.45-.28-.57-1.08-.83-1.64,4.85-2.26,10.69-2.27,15.25-6.5-4.23-4.6-7.15-9.71-10.27-14.48-6.84-10.46-14.65-21.61-16.93-33.48-4-20.63-5.14-41.95-4.95-63.17,0-2,.9-4.7-3-4.73.19,3.86-3.23,4.75-5.46,6.8-3.1,2.85-7.65,5.33-7.16,10.22.76,7.68-.3,15.57,2.44,23-1.15,3.41-2.09,6.81.52,10-1.41,18.21.8,36.54-2,54.7-5.25-2.76-10.89-4.88-15-9.48,2.47-27.08,3.55-54.3,8.77-81.12-2.42-2.31-4.58-4.91-8.92-6.37,0,9.37-3.65,17.6-5.24,26.31-3.36,18.45-3.33,37.17-3.83,55.84-14.75-8.62-30.06-16.39-42.63-28.35,7-12,14.52-23.7,13.55-38.57-.18-2.83,2.11-4.29,4.76-4.87,4.45-1,9.15-1.34,13.27-3.1,6.47-2.77,13.64-5.33,18.54-10.06,6.77-6.55-2.07-12.9-3.3-19.36a87,87,0,0,1-.25-33c1.32-6.88,15.24-14.09,23.63-12.88,4.64.66,14.09,12.05,14,17.24-.23,10.46,4.21,20.86-1.77,31.49-2.9,5.16,6.33,14.28,13.4,14.15,11.83-.21,23.5.61,35,4.31.63-.77,1.55-1.37,1.68-2.1,2.09-11.87,7.74-18.84,21-18.27,9.42.41,17.73-4.47,26.66-9.83,1.8,12.71,1.74,24.88,5.31,36.67,8.88-7.81-.06-19.74,6.59-28.49-6.78-5.93-9.47-13.17-10.33-22.59-.8-8.8-6.56-17-8.08-26.28-2.08-12.66-.38-18.43,9.38-25.06s22.23-7.25,30.55-1.66c18.28,12.27,20.8,28,7.54,46.3a22.84,22.84,0,0,0-2.83,5.86c-5.45,15.67-5.43,15.68-20.14,24.36,4.67,8.46-4.84,17.66,1.79,26.41,4.57-8.26,9.38-16.35,13.58-24.74,3.1-6.19,6.17-9.16,13.47-5.21,7,3.79,14.73,6.16,22.24,8.89,9.25,3.37,16.15,8.18,12.52,21.3a124.42,124.42,0,0,0,21.28-14.73c4.8-4.11,5-8.78,1.07-13-8.72-9.5-7.19-21-6.08-32,.73-7.27,5.16-12.7,13.81-12,1.85.16,3.72.06,5.58.1,19.88.41,26.6,8.33,23.84,28.56-.85,6.17-1.66,12.58-4,18.25a120,120,0,0,0-7,23.78c-6.2-.34-9.72-6.07-17.48-6.58L485.61,116c3.33.12,2.81-3.28,5.29-4.42l7.74,5.33c.22-4,.37-6.93.57-10.53,10.5,5.08,19.55,9.42,23.62,22C528.28,145.2,536.59,161.07,543.68,177.34Zm-32.19,8.27c6.72-1.77,11.87-4.07,9.37-11.54-2.11-6.29-3.8-14-14-10C509.62,170.73,509.84,177.92,511.49,185.61ZM395.65,150.78c-6-15.41-6-15.42-13.89-13.17a57.64,57.64,0,0,1,4,18.46Zm75.49,41.12c2.31,10.25,7.27,7.62,13.11,3.9C481,189,475.8,192.64,471.14,191.9ZM346.19,177.22c.28-4.16,1-7.06-.78-9.83-2.22,0-4.39-.16-6,1.93C340.27,172.4,342.56,174.27,346.19,177.22Z"/><path class="cls-1" d="M284.18,381.24q26.88-12.18,53.77-24.35c7.29-3.28,14.65-6.38,22-9.57-4,27.27-4.65,54.43.7,81.72.89,4.55.71,10.94-5.36,15.18s-5.66,12.51-5.92,19.46c-.27,7.33.36,14.65-9.39,16.27-2,.34-2.54,2.21-3.25,4.06a22.92,22.92,0,0,1-24.43,14.07c-6.31-1-8.55-4.76-5.74-10.68a81.11,81.11,0,0,1,5.24-8.69C300,446.21,287,415.28,284.18,381.24Z"/><path class="cls-1" d="M424.84,360.7c9.18,3.48,16.82,10.95,27.62,10.54,1.8-.07,3.71,2.92,5.57,4.51-2.88,11.48-6,22.92-8.56,34.47-1.88,8.4-9.46,16.49-1.9,25.65a1,1,0,0,1,.08.9c-8.32,12.59,1.56,19.46,8.34,27.35,1.85,2.16,3.22,4.59,2.08,7.8-14.76,5.29-24.4-7.1-37-11.37.4-5.93-5.88-11.84-.64-19.09,1.38-1.92-2.54-4.38-4.7-6.07-4.31,1.39-4.34,4.28-3.74,8.17,1.56,10.09,4.48,19.18,12.09,26.66,3.58,3.52,5.42,8.86,8,13.35-10.79,6.67-21.68,5.11-28-4.34-2.57-3.85-5.29-5.61-9.66-5.83-7-.34-12.11-2.81-11.17-11.33.58-5.28-3.28-8.52-6.5-13.1,16.12-17.88,6.47-39,6.41-59.16,0-1.13-1.48-2.59-1.12-3.33,7.35-15,.24-30,.21-45l34.88,16.42v71.11c7.73-4.74,8-4.77,7.23-10.82C422,399,421.45,379.85,424.84,360.7Z"/><path class="cls-1" d="M309.42,311.65c-10.94,6-21.53,12.63-33.23,17.1-3.23-11.19-9.91-20.47-16.26-31.88-1.56,14.55-.28,27.07,1.3,39.59-12.53,6.59-24.1,15.18-38.06,18.8-1.62-18.34-4.17-36.67-4.59-55-.4-17.43-9.28-32.48-11.35-49.39-.59-4.8.86-9.45-.51-14.05,22.05,14.25,44,28.7,66.2,42.68,12,7.55,24.52,14.28,36.8,21.39Q309.57,306.24,309.42,311.65Z"/><path class="cls-1" d="M509.52,345.54c-5.84-2.79-11.71-5.51-17.5-8.4-11.12-5.54-11.1-5.58-12.4-17.69-3,1.36-2.53,5.81-7.26,7.08l-37.62-19.77c10.74-6.28,20.27-11.6,29.56-17.32,17.24-10.62,34.32-21.5,51.53-32.18,1.78-1.1,4-1.54,6-2.3.26,4.66,4.24,10.12-3.21,13.15-1,.4-.79,4-.94,6.11-1.24,17.86-2.16,35.76-3.79,53.59C513.31,333.8,511,339.63,509.52,345.54Z"/><path class="cls-1" d="M484.22,386.69l25.93,9.71c3.28,9.93,3.81,20.34,10,29.88,6.86,10.58,16.18,15.11,26.81,19a25.15,25.15,0,0,1,3.37,1.45c.48.27.76.91,1.19,1.46-.92,3.65-3.94,1.95-6,2.26-17,2.49-33.28-4.85-50.2-3.85-3.88.23-5.08-2.86-5.57-6.21C487.07,422.54,483.32,404.86,484.22,386.69Z"/><path class="cls-1" d="M232.6,401.57c9.24-6,19.62-9,30.14-11.68,1.54,2.8,2.84,6.09,1.81,9-3.42,9.48-.27,18.35,1.91,27.21-17,10.95-53.7,14.44-60.32,4.82C217.69,423.74,236.4,422.4,232.6,401.57Z"/><path class="cls-2" d="M247.22,134.5c-2.74-7.46-1.68-15.35-2.44-23-.49-4.89,4.06-7.37,7.16-10.22,2.23-2,5.65-2.94,5.46-6.8,3.89,0,3,2.75,3,4.73-.19,21.22,1,42.54,4.95,63.17,2.28,11.87,10.09,23,16.93,33.48,3.12,4.77,6,9.88,10.27,14.48-4.56,4.23-10.4,4.24-15.25,6.5-12.22-2.74-21.37-11.06-31.5-17.6,2.75-18.15.54-36.48,2-54.69C252.15,140.94,249.25,137.74,247.22,134.5Z"/><path class="cls-2" d="M424.3,183c-.54-5.17-.19-9.2,6-10.29,4.81-.85,7.29-4.24,7.54-10.74,4.39,9.66,1,20,8.73,26.84,1,.89.54,4.37-.23,6.24C440.35,209.61,426.46,203.41,424.3,183Z"/><path class="cls-2" d="M221.56,184.4c.5-18.67.47-37.39,3.83-55.84,1.59-8.71,5.24-16.94,5.24-26.31,4.34,1.46,6.5,4.06,8.92,6.37-5.22,26.82-6.3,54-8.77,81.12C226.78,189.6,223.94,187.39,221.56,184.4Z"/><path class="cls-2" d="M424.84,360.7c-3.39,19.15-2.86,38.32-.45,57.53.75,6,.5,6.08-7.23,10.82V357.94Z"/><path class="cls-2" d="M261.23,336.46c-1.58-12.52-2.86-25-1.3-39.59,6.35,11.41,13,20.69,16.26,31.88C271.88,332.65,267.2,335.84,261.23,336.46Z"/><path class="cls-2" d="M309.42,311.65q.15-5.41.3-10.8l8.89,5.5C315.94,309.48,312.65,310.52,309.42,311.65Z"/><path class="cls-2" d="M615.76,140.29c1.41-1.45,2.61-3.29,5.22-2.66.51,2.89-2.23,3-3.52,4.34Z"/><path class="cls-2" d="M131.42,138.16c-.57-.83-2.67-1.1-1.49-2.47.81-.94,2.27-.34,3,.95Z"/><path class="cls-2" d="M592,392.56l3.54.45c-2,1.29-3,1.47-3.4-.61Z"/><path class="cls-2" d="M511.49,185.61c-1.65-7.69-1.87-14.88-4.64-21.54,10.21-4,11.9,3.71,14,10C523.36,181.54,518.21,183.84,511.49,185.61Z"/><path class="cls-2" d="M395.65,150.78l-9.92,5.29a57.64,57.64,0,0,0-4-18.46C389.64,135.36,389.65,135.37,395.65,150.78Z"/><path class="cls-2" d="M471.14,191.9c4.66.74,9.87-2.91,13.11,3.9C478.41,199.52,473.45,202.15,471.14,191.9Z"/><path class="cls-2" d="M342.47,177.22c-3.63-2.95-5.92-4.82-6.79-7.9,1.62-2.09,3.79-1.92,6-1.93C343.5,170.16,342.75,173.06,342.47,177.22Z"/><path class="cls-3" d="M247.22,134.5c2,3.24,4.93,6.44.52,10C245.13,141.31,246.07,137.91,247.22,134.5Z"/><path class="cls-4" d="M3.19,25.16C21.19-7.92,157.19,60,218,86.67,147.19,64,38.19,17,23.19,36c-14.58,18.47,245,171,354.54,237.73C471.19,224,732.33,55.53,721.88,37.4,718.19,31,567.19,79,500.19,100c33-21,233-90,243.29-74.84C775.86,72.91,510.19,276,434.74,306.76c73.45,36.24,198.82,110,221.18,91.53C673.19,384,562.19,287,531.13,257.19,576.19,290,700.19,378,673.93,416c-37.87,54.87-227.74-46-300-77.06-27.71,19-240.71,115-306.44,79.83C26.24,396.74,166.19,297,202.14,270.5,170.19,306,94.19,374,104.64,389.9c12.26,18.66,209.45-78.25,214-83.55C278.19,283-34.81,95,3.19,25.16ZM615.19,408c-94-43-190-93-225.86-114.35C402.19,286,595.19,177,621,137.63,595.19,147,408.19,275,377.19,288c-27-12-175-106-247.26-152.31,3.26,20.31,193.26,134.19,236,157.68C299.15,328.63,196.37,374.15,128.19,408c41-8,226.49-86.17,249-104C431.19,337,573.19,408,615.19,408Z"/><text class="cls-5" transform="translate(172.84 607.73) scale(0.99 1)"><tspan class="cls-6">W</tspan><tspan x="133.9" y="0">eb+</tspan></text></g></g></svg>