<svg xmlns="http://www.w3.org/2000/svg" viewBox="0 0 224 224"><defs><style>.cls-1{fill:#627f9a;}.cls-2{fill:#fcfdfd;}</style></defs><title>inicio-mail</title><g id="Capa_2" data-name="Capa 2"><g id="Capa_1-2" data-name="Capa 1"><circle class="cls-1" cx="112" cy="112" r="112"/><rect class="cls-2" x="41.03" y="60.99" width="141.94" height="103.13" rx="12" ry="12"/><path class="cls-1" d="M121,112c16,14,27,22,41,37-10-7-28-21-44-34-3,3-2.93,4-6,4s-2,0-7-5c-11.58,9.66-33,27-45,35,10-11,30-26,43-37-9.3-8.41-34-27.91-43-36,7,4,50.48,37,52,37,3,0,29-24,50-38C162,75,122.53,110.69,121,112Z"/></g></g></svg>