<svg xmlns="http://www.w3.org/2000/svg" viewBox="0 0 350 282.79"><defs><style>.cls-1{fill:#2552f0;}.cls-2{fill:#021e8b;}.cls-3{fill:#fefefe;}</style></defs><title>vision</title><g id="Capa_2" data-name="Capa 2"><g id="Mision"><path class="cls-1" d="M152.16,34.41c4.52,2.26,6.49,5.65,7,11,1.11,10.69.65,21.27-.15,31.9a2,2,0,0,0,1.16,2.29c.69,6.86,4.18,12.33,8.62,13.27a48.12,48.12,0,0,0,13.49,1.23c21.94-1.57,32.44-14.69,31-33.63-.46-6-2.25-11.84-3.48-17.75-2.26-10.79,1-16.58,11.65-18.65s21.6-3.25,32.39-4.91c11.87-1.82,23.91-2.47,35.6-5.45,1.76.64,1.16,2.17,1.19,3.37.41,16.1-1.48,32-2.9,48-.77,8.78-1.59,17.93.73,26.79.35,12.86,7.38,18.31,20,15.51,10.56-2.35,20.71-6.67,31.79-6.49,6.54,1.71,8.83,6.79,9.41,12.71A70.29,70.29,0,0,1,346.81,141C343.59,151.62,334,157.27,323.13,155c-5-1.05-9.91-2.4-14.87-3.57-9.05-2.14-16.41,1.35-17.3,12.65-1.16,14.67-.1,29.29,1,43.95.67,9.28,2.73,18.42,2.45,27.79-.1,3.27,2.3,6.43.39,10.44-7.23,1.73-15.38,1.71-23.14,4-11.62,3.37-22.72,8.21-34.24,11.82-6.79,2.13-13.89,4.43-20.46-1l-1.2-1,.09.1a27.44,27.44,0,0,1-2.27-11.52c0-12.48,3.34-24.56,4.14-36.92.49-7.63.46-15.53-6-20.83a20.07,20.07,0,0,0-20.23-3.47c-21.95.24-36.35,13.64-32,40.11,1.15,7.09,3.36,13.92,5.6,20.74,5,15.22.35,24.68-14.84,30-13.63,4.78-27.81,5.19-42,4a232,232,0,0,0-25.29-.35,448,448,0,0,0,2-58.6c-.32-8.4-.38-17-3.78-24.94-1.52-3.57-3.48-7-7.72-7.47-5.44-.57-10.93-.53-15.57,3.21-5.51-.12-10.58,2.71-16.19,2.24-3.67-.3-7.06-.9-9.83-3.52l-2.3-1,.07.05a61.07,61.07,0,0,1-2.36-32.78c2-9.67,7-14,16.84-14.13,5.29-.07,10.6.24,15.87,0,8.5-.44,16.16-2.65,19.52-11.69a58.25,58.25,0,0,0,3.44-19.92c.16-16.87-2.89-33.38-5.09-50-.63-4.69-2.87-9.38-1.1-14.11,6.52-.84,12.7-1.45,18.81-2.47C114.58,43.56,132.53,35.14,152.16,34.41Zm100.48,95.53c-3.17-6.88-7.82-12.73-11.51-19.44l-7.41,1.15v33.26c2.35.52,4.33.57,6.73-1.19V123.84a71.42,71.42,0,0,1,8.65,14c2.31,5.05,5.21,6.4,9.76,3.13V108.54a8.33,8.33,0,0,0-5.19.8c-.63,3.26-1.93,6.51-1.27,9.92S253.78,126.23,252.64,129.94ZM229,128.68c.53-10.13-6.45-16-17.18-13.42-9.21,2.22-15.13,13.36-12.61,23.7,2.14,8.8,9.8,12.22,18.34,8.67C225.71,144.24,228.25,137.64,229,128.68ZM124.3,127.26c-3-.09-5.62-.55-8,1.6,3.81,10.34,5.9,21.23,10.4,31.87,2.89-1.6,7.12,1.23,8.64-3.5,1.3-4,2.45-8.15,3.67-12.23l6.12-20.52c-5.87-.68-8.08,1.58-9,6.64-1,6.12-3.17,12-4.83,18l-1-.06Q127.29,138.19,124.3,127.26ZM160.45,154c5.31,2.25,10.09,1.55,14.57-.54,4.87-2.28,7.58-6.38,7-11.87-.48-4.88-4.15-6.86-8.5-7.85a10.56,10.56,0,0,1-2.13-.75c-1.58-.76-3-1.65-2.83-3.76s2.05-2.8,3.59-3a47,47,0,0,1,7.12-.1c.6-2,1.56-3.52.91-5.31-6.65-2.93-14.17-.71-17.55,5.17-3.5,6.08-1.45,11.54,5.25,13.87,1.24.43,2.57.66,3.79,1.15,1.62.65,3.18,1.59,3.07,3.62s-1.5,3-3.15,3.67c-3.11,1.29-6.23.23-9.47-.38Zm26.8-35.71v33.5c2.82.54,4.73-.55,6.56-1.25V117.23Zm-32,38.05V122.47c-2.72.92-6.45-.71-6.54,3.37-.24,10.49-.08,21-.08,31.83Zm66-50.55c-5.93-.84-8.66,1.62-9.66,6.6C216.94,113.31,218.77,109.52,221.27,105.83Z"/><path class="cls-2" d="M152.16,34.41c-19.63.73-37.58,9.15-56.67,12.34-6.11,1-12.29,1.63-18.81,2.47-1.77,4.73.47,9.42,1.1,14.11,2.2,16.61,5.25,33.12,5.09,50a58.25,58.25,0,0,1-3.44,19.92c-3.36,9-11,11.25-19.52,11.69-5.27.27-10.58,0-15.87,0-9.82.12-14.87,4.46-16.84,14.13a61.07,61.07,0,0,0,2.36,32.78c-7.15-3.79-14.34-7.51-21.44-11.4-4.33-2.38-6-6.64-7-11.18a61.45,61.45,0,0,1,.21-24.76c1.76-8.81,6.92-13.33,16-13.86,5.65-.32,11.34.14,17,0,12.74-.35,18.9-5.72,21.2-18.36,2.4-13.2,1.15-26.37-.53-39.51-1.57-12.34-3.47-24.65-5.32-37.7,15-.86,29.45-4.09,43.71-8.17,8.35-2.39,16.65-4.86,25.31-6a20.18,20.18,0,0,1,13.09,2.31C138.58,27,145.38,30.68,152.16,34.41Z"/><path class="cls-2" d="M289.49,13.66c-11.69,3-23.73,3.63-35.6,5.45C243.1,20.77,232.21,21.94,221.5,24s-13.91,7.86-11.65,18.65c1.23,5.91,3,11.78,3.48,17.75,1.43,18.94-9.07,32.06-31,33.63a48.12,48.12,0,0,1-13.49-1.23c-4.44-.94-7.93-6.41-8.62-13.27,22.59-4,31.26-18.43,25.57-42.56-.86-3.67-1.91-7.32-2.5-11-1.24-7.9,1.29-12.15,8.86-14.84,9.51-3.38,19.59-3.92,29.46-5.4,13.25-2,26.54-3.68,39.81-5.54,1.7-.23,3.27-.4,4.91.54C274,5.1,281.76,9.36,289.49,13.66Z"/><path class="cls-2" d="M57.81,194.08c4.64-3.74,10.13-3.78,15.57-3.21,4.24.45,6.2,3.9,7.72,7.47,3.4,8,3.46,16.54,3.78,24.94a448,448,0,0,1-2,58.6c-8.47-3.21-15.9-8.44-24-12.42-3.08-1.52-1.67-3.91-1.53-5.9C59,240.41,59.8,217.25,57.81,194.08Z"/><path class="cls-2" d="M191.48,187.36a20.07,20.07,0,0,1,20.23,3.47c6.44,5.3,6.47,13.2,6,20.83-.8,12.36-4.12,24.44-4.14,36.92a27.44,27.44,0,0,0,2.27,11.52c-8.52-3.07-16.2-7.82-23.78-12.61-4.19-2.64-4.37-7.73-4.39-12.29-.07-10.81,2.42-21.36,3.6-32A64.28,64.28,0,0,0,191.48,187.36Z"/><path class="cls-2" d="M340.27,100.87c-11.08-.18-21.23,4.14-31.79,6.49-12.59,2.8-19.62-2.65-20-15.51q5.7-1.62,11.39-3.22c8.72-2.44,16.93-2.09,24.75,3.32C329.56,95.35,335,97.92,340.27,100.87Z"/><path class="cls-2" d="M29.49,191.82l2.3,1A2.25,2.25,0,0,1,29.49,191.82Z"/><path class="cls-2" d="M215.73,260l1.2,1C216.29,261,215.57,261,215.73,260Z"/><path class="cls-3" d="M252.64,129.94c1.14-3.71.44-7.17-.24-10.68s.64-6.66,1.27-9.92a8.33,8.33,0,0,1,5.19-.8V141c-4.55,3.27-7.45,1.92-9.76-3.13a71.42,71.42,0,0,0-8.65-14v19.88c-2.4,1.76-4.38,1.71-6.73,1.19V111.65l7.41-1.15C244.82,117.21,249.47,123.06,252.64,129.94Z"/><path class="cls-3" d="M229,128.68c-.73,9-3.27,15.56-11.45,18.95-8.54,3.55-16.2.13-18.34-8.67-2.52-10.34,3.4-21.48,12.61-23.7C222.53,112.68,229.51,118.55,229,128.68Zm-7.32,1.26c-.42-3.25-.48-7.86-5.2-9.48-3.89-1.34-6.94,1-8.91,4.31-1.48,2.5-.94,5.46-1,8.22-.08,4.72,1,9.33,6,10.91,3.23,1,8.13-5.06,8.93-10.23C221.61,132.74,221.57,131.79,221.66,129.94Z"/><path class="cls-3" d="M124.3,127.26q3,10.92,6,21.85l1,.06c1.66-6,3.79-11.93,4.83-18,.87-5.06,3.08-7.32,9-6.64L139,145c-1.22,4.08-2.37,8.18-3.67,12.23-1.52,4.73-5.75,1.9-8.64,3.5-4.5-10.64-6.59-21.53-10.4-31.87C118.68,126.71,121.31,127.17,124.3,127.26Z"/><path class="cls-3" d="M160.45,154l1.71-6.12c3.24.61,6.36,1.67,9.47.38,1.65-.69,3.05-1.77,3.15-3.67s-1.45-3-3.07-3.62c-1.22-.49-2.55-.72-3.79-1.15-6.7-2.33-8.75-7.79-5.25-13.87,3.38-5.88,10.9-8.1,17.56-5.17.64,1.79-.32,3.28-.92,5.31a47,47,0,0,0-7.12.1c-1.54.24-3.39.86-3.59,3s1.25,3,2.83,3.76a10.56,10.56,0,0,0,2.13.75c4.35,1,8,3,8.5,7.85.54,5.49-2.17,9.59-7,11.87C170.54,155.59,165.76,156.29,160.45,154Z"/><path class="cls-3" d="M187.25,118.33l6.56-1.1v33.35c-1.83.7-3.74,1.79-6.56,1.25Z"/><path class="cls-3" d="M155.25,156.38l-6.62,1.29c0-10.83-.16-21.34.08-31.83.09-4.08,3.82-2.45,6.54-3.37Z"/><path class="cls-3" d="M221.27,105.83c-2.5,3.69-4.33,7.48-9.66,6.6C212.61,107.45,215.34,105,221.27,105.83Z"/><path class="cls-1" d="M221.66,129.94c-.09,1.85,0,2.8-.2,3.73-.8,5.17-5.7,11.25-8.93,10.23-5-1.58-6-6.19-6-10.91,0-2.76-.5-5.72,1-8.22,2-3.32,5-5.65,8.91-4.31C221.18,122.08,221.24,126.69,221.66,129.94Z"/></g></g></svg>