<svg xmlns="http://www.w3.org/2000/svg" viewBox="0 0 100 100"><defs><style>.cls-1{fill:#627f9a;}.cls-2{fill:#fff;}</style></defs><title>inicio-asesoria</title><g id="Capa_2" data-name="Capa 2"><g id="Capa_1-2" data-name="Capa 1"><circle class="cls-1" cx="50" cy="50" r="50"/><path class="cls-2" d="M50.06,50.76c-7.3,0-13.3-5.34-13.68-12.21-.46-8.23,7.28-15,15.51-13.68,6,1,10.5,5.08,11.51,10.46A13.05,13.05,0,0,1,53.15,50.46,13.39,13.39,0,0,1,50.06,50.76Z"/><path class="cls-2" d="M51.16,75.3,61,51.94c7.91,3.34,14.72,12.7,14.73,22.91a2.58,2.58,0,0,1-1.75.44C66.41,75.31,58.9,75.3,51.16,75.3Z"/><path class="cls-2" d="M24.32,75.15C24.37,63.81,31.86,54.94,38.88,52c.63.85,9,20.71,9.81,23.14Z"/><path class="cls-2" d="M50,71.85c-1.35-3.45-2.65-6.54-3.78-9.71-.49-1.39.29-2.81.46-4.22s.55-3.09.86-4.78a15.92,15.92,0,0,0,4.92,0c.5,2.76,1,5.39,1.45,8a1.94,1.94,0,0,1-.11,1.06C52.56,65.32,51.34,68.45,50,71.85Z"/></g></g></svg>