<svg xmlns="http://www.w3.org/2000/svg" viewBox="0 0 224 224"><defs><style>.cls-1{fill:#627f9a;}.cls-2,.cls-4{fill:#fff;}.cls-3{fill:#f5f9fd;}.cls-4{font-size:18.39px;font-family:Arial-BoldMT, Arial;font-weight:700;}</style></defs><title>inicio-erp</title><g id="Capa_2" data-name="Capa 2"><g id="Capa_1-2" data-name="Capa 1"><circle class="cls-1" cx="112" cy="112" r="112"/><circle class="cls-2" cx="61.71" cy="71.37" r="18.39"/><circle class="cls-1" cx="61.71" cy="71.37" r="16.85"/><path class="cls-2" d="M116.68,117.18c.87,1.44,1.65,2.7,2.41,4s1.39,2.39,2.14,3.67c-3,.81-5.16.31-6.27-2.67-.23-.61-.77-1.09-1-1.7-1-2.62-2.93-3-5.58-2.29v6.63a8.81,8.81,0,0,1-4.14.14V103.7c3.59,0,7.06-.22,10.49.07,2.81.24,4.56,2.28,5.36,4.9a6.83,6.83,0,0,1-1.7,7.11C117.92,116.24,117.37,116.61,116.68,117.18Zm-8.23-10v7.09c2.52-.69,5.33,1.23,7.22-1.55a3.38,3.38,0,0,0,0-4C113.72,106.07,111,107.63,108.45,107.18Z"/><path class="cls-2" d="M128.18,117.83v7.11h-4V103.8a100.25,100.25,0,0,1,10.55.08c3,.33,5.46,4.1,5.23,7.24a6.91,6.91,0,0,1-6.17,6.68C132,117.94,130.3,117.83,128.18,117.83Zm0-3.89c5,.58,6.23.37,7-1.3a3.77,3.77,0,0,0-.32-4.22c-1.91-2.16-4.38-.94-6.67-1.18Z"/><path class="cls-2" d="M100.24,103.79v3.42h-10c-.57,1.67-.28,3.29-.21,5.2h8.44c.68,1.14.46,2,.34,3.22H90.17a21.87,21.87,0,0,0-.17,5.73h10.26a7.5,7.5,0,0,1,.17,3.37,3.66,3.66,0,0,1-2.31.35c-4,0-8.06,0-12.24,0v-21.3Z"/><circle class="cls-2" cx="164.36" cy="74.43" r="18.39"/><circle class="cls-1" cx="164.36" cy="74.43" r="16.85"/><polygon class="cls-2" points="158.23 82.09 155.16 82.09 155.16 77.5 158.23 74.43 158.23 82.09"/><polygon class="cls-2" points="162.83 82.09 159.76 82.09 159.76 74.43 162.83 77.5 162.83 82.09"/><polygon class="cls-2" points="167.42 82.09 164.36 82.09 164.36 77.5 167.42 74.43 167.42 82.09"/><polygon class="cls-2" points="172.02 82.09 168.95 82.09 168.95 72.9 172.02 69.83 172.02 82.09"/><polygon class="cls-2" points="172.02 68.3 163.59 76.73 159 72.13 155.16 75.96 153.63 74.43 159 69.07 163.59 73.67 170.49 66.77 168.95 65.24 175.08 63.71 173.55 69.83 172.02 68.3"/><circle class="cls-2" cx="176.61" cy="128.06" r="18.39"/><circle class="cls-1" cx="176.61" cy="128.06" r="16.85"/><path class="cls-2" d="M184.73,132.27h-13a.85.85,0,0,1-.85-.74l-1.42-9.22h-1.54c-1.53,0-1.53-1.53,0-1.53h3.07c.27.27,0,1.53,0,1.53h15.32c.72,0-.35,5-.67,6.94a.86.86,0,0,1-.86.72H172.47v.77h12.26C185.6,131.29,185.64,131.54,184.73,132.27Z"/><circle class="cls-2" cx="174" cy="133.8" r="1.53"/><circle class="cls-2" cx="183.2" cy="133.8" r="1.53"/><rect class="cls-1" x="170.94" y="123.84" width="3.06" height="1.53" rx="0.5" ry="0.5"/><rect class="cls-1" x="176.3" y="123.84" width="3.06" height="1.53" rx="0.5" ry="0.5"/><rect class="cls-1" x="181.66" y="123.84" width="3.06" height="1.53" rx="0.5" ry="0.5"/><rect class="cls-1" x="171.7" y="126.91" width="3.06" height="1.53" rx="0.5" ry="0.5"/><rect class="cls-1" x="176.3" y="126.91" width="3.06" height="1.53" rx="0.5" ry="0.5"/><rect class="cls-1" x="180.9" y="126.91" width="3.06" height="1.53" rx="0.5" ry="0.5"/><circle class="cls-2" cx="142.91" cy="174.02" r="18.39"/><circle class="cls-1" cx="142.91" cy="174.02" r="16.85"/><polygon class="cls-2" points="154.4 183.21 131.42 183.21 131.42 180.15 132.95 180.15 132.95 170.95 152.87 170.95 152.87 180.15 154.4 180.15 154.4 183.21"/><polygon class="cls-2" points="137.55 169.42 132.95 169.42 134.48 161.76 136.01 161.76 137.55 169.42"/><polygon class="cls-2" points="145.21 169.42 140.61 169.42 142.14 163.29 143.67 163.29 145.21 169.42"/><polygon class="cls-2" points="152.87 169.42 148.27 169.42 149.8 164.83 151.34 164.83 152.87 169.42"/><rect class="cls-1" x="134.48" y="175.55" width="4.6" height="3.06"/><rect class="cls-1" x="140.61" y="175.55" width="4.6" height="3.06"/><rect class="cls-1" x="146.74" y="175.55" width="4.6" height="3.06"/><circle class="cls-2" cx="83.16" cy="175.55" r="18.39"/><circle class="cls-1" cx="83.16" cy="175.55" r="16.85"/><path class="cls-3" d="M92.35,184.74c0,1.54-1.53,1.54-1.53,0V169.42H75.5v15.32c0,1.23-1.54,1.54-1.54,0V167.89H70.9c-1.53,0,5.73-4.46,11.46-5.93a2.25,2.25,0,0,1,1.57,0c3.83,1.26,13,5.88,11.48,5.88H92.35C92.31,168.19,92.35,181.68,92.35,184.74Z"/><rect class="cls-3" x="77.03" y="170.95" width="3.06" height="3.06"/><rect class="cls-3" x="81.62" y="170.95" width="3.06" height="3.06"/><rect class="cls-3" x="86.22" y="170.95" width="3.06" height="3.06"/><rect class="cls-3" x="77.03" y="175.55" width="3.06" height="3.06"/><rect class="cls-3" x="81.62" y="175.55" width="3.06" height="3.06"/><rect class="cls-3" x="86.22" y="175.55" width="3.06" height="3.06"/><rect class="cls-3" x="77.03" y="180.15" width="3.06" height="3.06"/><rect class="cls-3" x="81.62" y="180.15" width="3.06" height="3.06"/><rect class="cls-3" x="86.22" y="180.15" width="3.06" height="3.06"/><circle class="cls-2" cx="46.39" cy="129.59" r="18.39"/><circle class="cls-1" cx="46.39" cy="129.59" r="16.85"/><path class="cls-2" d="M47.84,126.48a3.33,3.33,0,0,0,0-1.45l-1.11-.24a4.35,4.35,0,0,0-.54-1.29l.62-1a6.15,6.15,0,0,0-1-1l-1,.63a4,4,0,0,0-1.3-.54l-.24-1.12a3.33,3.33,0,0,0-1.45,0l-.24,1.12a4,4,0,0,0-1.3.54l-1-.63a6.15,6.15,0,0,0-1,1l.62,1a4.35,4.35,0,0,0-.54,1.29l-1.11.24a3.33,3.33,0,0,0,0,1.45l1.11.25a4.58,4.58,0,0,0,.54,1.29l-.62,1a5.79,5.79,0,0,0,1,1l1-.62a4.52,4.52,0,0,0,1.3.54l.24,1.12a3.79,3.79,0,0,0,1.45,0l.24-1.12a4.52,4.52,0,0,0,1.3-.54l1,.62a5.79,5.79,0,0,0,1-1l-.62-1a4.58,4.58,0,0,0,.54-1.29Z"/><circle class="cls-1" cx="42.56" cy="125.76" r="2.14"/><path class="cls-2" d="M49.4,135.47a2.73,2.73,0,0,0,0-1l-.8-.17a3.17,3.17,0,0,0-.39-.93l.45-.69a4.2,4.2,0,0,0-.73-.73l-.7.45a3,3,0,0,0-.92-.39l-.17-.8a4.57,4.57,0,0,0-.52,0,4.36,4.36,0,0,0-.52,0l-.17.8a3.17,3.17,0,0,0-.93.39l-.69-.45a4.2,4.2,0,0,0-.73.73l.45.69a3.17,3.17,0,0,0-.39.93l-.8.17a2.73,2.73,0,0,0,0,1l.8.17a3,3,0,0,0,.39.92l-.45.7a4.2,4.2,0,0,0,.73.73l.69-.45a3.17,3.17,0,0,0,.93.39l.17.8a4.36,4.36,0,0,0,.52.05,4.57,4.57,0,0,0,.52-.05l.17-.8a3,3,0,0,0,.92-.39l.7.45a4.2,4.2,0,0,0,.73-.73l-.45-.7a3,3,0,0,0,.39-.92Z"/><circle class="cls-1" cx="45.62" cy="134.95" r="1.53"/><path class="cls-2" d="M56,130.62a5.77,5.77,0,0,0,.22-.58,3.34,3.34,0,0,0,.1-.62l-.87-.45a3.47,3.47,0,0,0-.15-1.2l.74-.66a4.59,4.59,0,0,0-.62-1.07l-.94.29a3.85,3.85,0,0,0-.95-.74l0-1a3.66,3.66,0,0,0-.58-.22,4.34,4.34,0,0,0-.61-.11l-.46.87a3.64,3.64,0,0,0-1.19.16l-.66-.74a4.77,4.77,0,0,0-1.08.61l.3.95a3.47,3.47,0,0,0-.74,1l-1-.06a5.17,5.17,0,0,0-.23.59,6,6,0,0,0-.1.61l.87.46a3.64,3.64,0,0,0,.15,1.19l-.73.66a4.55,4.55,0,0,0,.61,1.07l1-.29a3.8,3.8,0,0,0,.94.74l0,1a4.07,4.07,0,0,0,.58.22,4.48,4.48,0,0,0,.62.11l.45-.87a3.93,3.93,0,0,0,1.19-.15l.67.73a4.93,4.93,0,0,0,1.07-.61l-.29-1a3.8,3.8,0,0,0,.74-.94Z"/><circle class="cls-1" cx="51.75" cy="128.82" r="1.84"/><path class="cls-3" d="M58.12,66.28C58.15,63.73,59.7,62,62,62s3.84,1.83,3.77,4.56-1.73,4.7-3.81,4.68S58.09,69,58.12,66.28Z"/><path class="cls-3" d="M68.56,80.56c0-2,0-3.06,0-6.13a25.83,25.83,0,0,1,3.07-1.53l1.24,1.25a1,1,0,0,1,.29.7c0,2.31.2,5.71,0,5.71Z"/><path class="cls-3" d="M71.53,69.42c0,1.56-.49,3-2.28,2.93S67.12,71,67.12,69.54s.42-2.72,2.14-2.77S71.42,68,71.53,69.42Z"/><path class="cls-3" d="M52.05,68.73c0-1.61.53-2.86,2.35-2.81s2.22,1.39,2.23,3-.55,2.94-2.26,3C52.47,71.88,52,70.41,52.05,68.73Z"/><path class="cls-3" d="M55.65,80.56c0-2,0-3.06,0-6.13a26.46,26.46,0,0,0-3.06-1.53l-1.25,1.25a1.05,1.05,0,0,0-.29.7c0,2.31-.19,5.71,0,5.71Z"/><path class="cls-3" d="M62.11,80.56c-.4-6.13-.45-3.06,0-6.13A32.52,32.52,0,0,1,65.6,72.9L67,74.15a.93.93,0,0,1,.33.7c0,2.31.22,5.71,0,5.71Z"/><path class="cls-3" d="M62.06,80.56c1.18-1.53,1.18-3.06,0-6.13a31.67,31.67,0,0,0-3.49-1.53l-1.42,1.25a.93.93,0,0,0-.33.7c0,2.31-.22,5.71,0,5.71Z"/><circle class="cls-2" cx="109.2" cy="48.39" r="18.39"/><circle class="cls-1" cx="109.2" cy="48.39" r="16.85"/><text class="cls-4" transform="translate(104.6 54.92) scale(1.01 1)">$</text></g></g></svg>