<svg xmlns="http://www.w3.org/2000/svg" viewBox="0 0 308.19 248.75"><defs><style>.cls-1{fill:#e11605;}.cls-2{fill:#8c1216;}.cls-3{fill:#fefefe;}</style></defs><title>mision_1</title><g id="Capa_2" data-name="Capa 2"><g id="Capa_1-2" data-name="Capa 1"><path class="cls-1" d="M253.82,62.13c-.66,6.32.19,11.52.26,18.63,0,10.47,6.64,15.71,16.84,13.49,9.47-2,18.58-6,28.52-5.67,5.67,1.21,7.84,5.46,8.36,10.52a57.7,57.7,0,0,1-2.35,24.68c-3.51,10.35-10.51,14.52-21.27,12.52-4.4-.82-8.71-2.17-13.09-3.16-8-1.8-12.62.87-14.31,8.91-2.16,10.22-1.1,20.59-.26,30.86,1.17,14.42,2.77,28.81,4.24,43.74-7.15,1.14-14.44,1.46-21.44,3.5-10.19,3-20,7-30.06,10.31-6,2-12.45,4.13-18.37-.75l-1.13-1,.12.19c-.1-.71-.42-1.12-1.21-.89l-.35.12c.19-.46.6-1,.52-1.37-2.77-13.71,1.68-26.93,2.8-40.37,1.26-15.27-5.36-25.38-23.74-22-1.32.17-2.65.27-4,.53-18.74,3.74-26.75,15.44-23.55,34.29a123.58,123.58,0,0,0,5,18.75c4.55,13.62.46,22-13.14,26.85-7.43,2.66-15.16,3.56-23,3.82-12.09.41-24.14-1.68-36.24-.54,1.43-20.39,2.58-40.81,1-61.22-1.31-16.41-5.84-24.52-23.82-16.64-7.47,2-15,5-22.21-.62a2,2,0,0,0-1.93-1l.05,0a55.18,55.18,0,0,1-3.13-20c.29-16.81,6.65-23,23.33-21.94,1.15.08,2.27.57,3.42.6,12,.32,18.71-2.92,21.4-14a58.12,58.12,0,0,0,1.87-14.26c-.13-14.31-2.47-28.39-4.39-42.52-.6-4.47-2.6-8.93-.88-13.8,12.17-.41,23.77-3.23,35.28-6.37,10.39-2.84,20.56-6.72,31.63-5.75,5.37,1.15,6.14,5.3,6.38,9.79.52,9.72-.91,19.44,0,29.17.65,7.14,3.54,10.38,10.18,12.3,5.53,1.61,10.92.53,16.25-.43a24.35,24.35,0,0,0,20-20.12c1.2-8.25-1.16-15.76-2.56-23.5-1.89-10.45.61-14.9,11.1-17.13,16.35-3.49,33-4.84,49.58-7,2.95-.38,6-2.37,9.75,0V31.34c0,1.67-.1,3.33-.1,5C255.13,44.62,253.86,61.8,253.82,62.13Zm-64.6,37.41c-.29,1.32-1.9.91-2.45,1.88-6.65,5.43-10.14,12-7.76,20.83,1.65,6.13,6.72,9.56,12.72,8.08s10.78-4.82,12.34-11.37c1.53-6.39,1.78-12.51-3.84-17.33-1.55-2.42-4.66-1.56-6.6-3.14,1.37-2.15,3.73-3.62,4.41-6.3C192.61,91.77,189.94,94.49,189.22,99.54Zm-60.23,39c.38-10.12-.72-19.69-1.22-29.12-6.39-1-9.24,2-10.12,8-.56,3.8-2,7.48-3.33,12.52-2.4-6.79-3-12.69-5.75-18-2.58-.64-5,.66-7.82,1.12-.57,10-1.13,19.82-1.7,29.75,2.28-.12,4,.14,6.28-1.35V124.66c3.27,5.07,3.23,10.89,6.18,15.75,3.73.63,5.12-1,5.83-4.74,1-5.09,2.87-10,4.37-15,2,6.25.26,12.62,2.39,18.75Zm85.88-31.85c2.85,5,5.85,8.6,6.95,12.69,1.6,5.91,4.86,6.3,9.85,4.64V94.85c-2-.25-3.72-.4-5.8,1v17.88c-2.74-4.83-4.92-8.43-6.88-12.15-3.1-5.89-3.47-6.07-9.63-3.44v29.31c2.09-.35,3.91-.27,5.51-1.37Zm-69.63,28.51c3,1.2,6.2.9,9.28.28,5.38-1.08,9.35-5.43,9.32-10.22,0-5.37-3.74-7.42-8.27-8.38-3.37-.72-4.45-2.49-3.21-5.69,2.9-1.47,6.1-.74,9.18-1,.11-1.81,1.36-3.26.46-5-2.42-1-4.95-.8-7.36-.45-5.14.75-9.37,5.14-9.5,9.88-.14,5.12,3.21,7.25,7.68,8.22a12.39,12.39,0,0,1,1.4.51c1.64.56,3.18,1.24,3,3.37s-1.76,2.52-3.27,3.3c-2.66,1.38-5.15-.39-7.72-.26C145.63,131.58,144.65,133.19,145.24,135.17Zm-11,2.82c2.42-1,6,1,6-3.15.16-9.07,0-18.15,0-27.32-2.15,0-4.1-.21-6.09.92Zm34-34.88v29.8c2.07-.12,3.9,0,5.69-.94V102.61Z"/><path class="cls-2" d="M134.57,30.63c-11.07-1-21.24,2.91-31.63,5.75-11.51,3.14-23.11,6-35.28,6.37-1.72,4.87.28,9.33.88,13.8,1.92,14.13,4.26,28.21,4.39,42.52a58.12,58.12,0,0,1-1.87,14.26c-2.69,11-9.41,14.28-21.4,14-1.15,0-2.27-.52-3.42-.6-16.68-1-23,5.13-23.33,21.94a55.18,55.18,0,0,0,3.13,20c-6.45-3.41-13-6.67-19.32-10.27-3.56-2-4.92-5.76-5.71-9.59a54.31,54.31,0,0,1,.1-21.33C2.7,119.14,7.4,115.11,16,114.75c5.32-.23,10.66.15,16-.09,9-.42,13.72-4.17,16.13-12.87,3.47-12.5,1.92-25.13.42-37.69-1.31-11-3.08-22-4.75-33.65,21.22-.14,40.32-9,60.64-12.23a17.49,17.49,0,0,1,12,2.17C122.39,23.88,128.5,27.22,134.57,30.63Z"/><path class="cls-2" d="M255.24,13.79c-3.74-2.42-6.8-.43-9.75,0-16.55,2.13-33.23,3.48-49.58,7-10.49,2.23-13,6.68-11.1,17.13,1.4,7.74,3.76,15.25,2.56,23.5a24.35,24.35,0,0,1-20,20.12c-5.33,1-10.72,2-16.25.43-6.64-1.92-9.53-5.16-10.18-12.3,16.06-1.67,24.85-11.93,23.93-27.87-.34-5.85-2.06-11.43-3.19-17.12-1.83-9.26.66-13.49,9.78-15.81,13.09-3.33,26.6-4.06,39.91-6.07,5.42-.81,10.94-1.16,16.27-2.36a12.59,12.59,0,0,1,9.87,1.7c5.15,3,10.42,5.86,15.75,8.56C255.36,11.66,255.24,19.42,255.24,13.79Z"/><path class="cls-2" d="M50.13,170.29c18-7.88,22.51.23,23.82,16.64,1.61,20.41.46,40.83-1,61.22-6.89-3.65-13.71-7.44-20.7-10.88-2.87-1.41-1.9-3.53-1.76-5.51,1.38-19.09,2-38.19.64-57.3C51.06,173,51.52,171.41,50.13,170.29Z"/><path class="cls-2" d="M167.9,164.45c18.38-3.39,25,6.72,23.74,22-1.12,13.44-5.57,26.66-2.8,40.37.08.41-.33.91-.52,1.37-6-3.18-12.08-6.25-18-9.56-4.58-2.55-5.07-7.18-5.1-11.72-.07-9.86,2.33-19.47,3.24-29.24C168.86,173.24,169.82,168.78,167.9,164.45Z"/><path class="cls-2" d="M299.44,88.58c-9.94-.29-19.05,3.62-28.52,5.67-10.2,2.22-16.87-3-16.84-13.49a.33.33,0,0,0,0-.56c4.85-1.12,9.67-2.44,14.56-3.33s9.8-.53,14.38,2.39C288.3,82.65,294,85.5,299.44,88.58Z"/><path class="cls-2" d="M26,168.62a2,2,0,0,1,1.93,1Z"/><path class="cls-2" d="M188.67,228.06c.79-.23,1.11.18,1.21.89C189.27,228.94,188.72,228.84,188.67,228.06Z"/><path class="cls-2" d="M189.76,228.76l1.13,1Z"/><path class="cls-3" d="M129,138.51l-4.89.9c-2.13-6.13-.37-12.5-2.39-18.75-1.5,5-3.4,9.92-4.37,15-.71,3.71-2.1,5.37-5.83,4.74-3-4.86-2.91-10.68-6.18-15.75v16.69c-2.31,1.49-4,1.23-6.28,1.35.57-9.93,1.13-19.77,1.7-29.75,2.83-.46,5.24-1.76,7.82-1.12,2.7,5.35,3.35,11.25,5.75,18,1.38-5,2.77-8.72,3.33-12.52.88-5.95,3.73-8.91,10.12-8C128.27,118.82,129.37,128.39,129,138.51Z"/><path class="cls-3" d="M214.87,106.66v19.41c-1.6,1.1-3.42,1-5.51,1.37V98.13c6.16-2.63,6.53-2.45,9.63,3.44,2,3.72,4.14,7.32,6.88,12.15V95.84c2.08-1.39,3.84-1.24,5.8-1V124c-5,1.66-8.25,1.27-9.85-4.64C220.72,115.26,217.72,111.69,214.87,106.66Z"/><path class="cls-3" d="M200.23,101.63c5.62,4.82,5.37,10.94,3.84,17.33-1.56,6.55-6.28,9.87-12.34,11.37s-11.07-2-12.72-8.08c-2.38-8.79,1.11-15.4,7.76-20.83C191.26,101.36,195.77,100.19,200.23,101.63Zm-15.18,14.09a23,23,0,0,0,.39,3.32c.7,2.59.77,5.72,4.56,6s5.91-1.49,7.21-4.8a14.47,14.47,0,0,0,.23-11.11c-1.73-4.21-6-5.73-9.12-3C185.57,108.48,185.47,112.18,185.05,115.72Z"/><path class="cls-3" d="M145.24,135.17c-.59-2,.39-3.59,1-5.42,2.57-.13,5.06,1.64,7.72.26,1.51-.78,3.11-1.31,3.27-3.3s-1.37-2.81-3-3.37a12.39,12.39,0,0,0-1.4-.51c-4.47-1-7.82-3.1-7.68-8.22.13-4.74,4.36-9.13,9.5-9.88,2.41-.35,4.94-.59,7.36.45.9,1.74-.35,3.19-.46,5-3.08.24-6.28-.49-9.18,1-1.24,3.2-.16,5,3.21,5.69,4.53,1,8.23,3,8.27,8.38,0,4.79-3.94,9.14-9.32,10.22C151.44,136.07,148.29,136.37,145.24,135.17Z"/><path class="cls-3" d="M134.29,138V108.44c2-1.13,3.94-.89,6.09-.92,0,9.17.11,18.25,0,27.32C140.26,139,136.71,137,134.29,138Z"/><path class="cls-3" d="M168.28,103.11l5.69-.5V132c-1.79,1-3.62.82-5.69.94Z"/><path class="cls-3" d="M189.22,99.54c.72-5.05,3.39-7.77,8.82-7.35-.68,2.68-3,4.15-4.41,6.3Z"/><path class="cls-1" d="M185.05,115.72c.42-3.54.52-7.24,3.27-9.63,3.1-2.7,7.39-1.18,9.12,3a14.47,14.47,0,0,1-.23,11.11c-1.3,3.31-3.56,5-7.21,4.8s-3.86-3.4-4.56-6A23,23,0,0,1,185.05,115.72Z"/></g></g></svg>