<svg xmlns="http://www.w3.org/2000/svg" viewBox="0 0 224 224"><defs><style>.cls-1{fill:#627f9a;}.cls-2{fill:#fff;}.cls-3{fill:#a7a8aa;}.cls-4{fill:#141416;}.cls-5{fill:#3b9bd1;}</style></defs><title>inicio-web</title><g id="Capa_2" data-name="Capa 2"><g id="Capa_1-2" data-name="Capa 1"><circle class="cls-1" cx="112" cy="112" r="112"/><rect class="cls-2" x="174" y="141" width="17" height="26" rx="1.22" ry="1.22"/><rect class="cls-2" x="134" y="95" width="46" height="61" rx="2" ry="2"/><rect class="cls-2" x="35" y="56" width="110" height="72" rx="2.17" ry="2.17"/><path class="cls-3" d="M173.45,152.07H137.56v-7.9c11.59,0,23.39.2,34.85.2C172.4,147,173.46,149.41,173.45,152.07Z"/><path class="cls-4" d="M76.7,151.69V134.53a5.64,5.64,0,0,0-3.14-.35q-17.18,0-34.33,0c-6.63,0-7.61-3.16-7.7-11.38-.22-18.82-.22-37.48-.08-59.3C31.5,55.9,32.81,53,39.32,53H139.78c6,0,8.19,2.18,8.19,8.25V91.86c1,.78,2.1.45,3.07.45,8.55,0,17.12.2,25.67-.06a5.71,5.71,0,0,1,6.07,6.1c-.11,13.21,0,26.41,0,39.75,2.15.61,4.28.3,6.36.28s3,.61,3,2.87c-.08,8.65,0,17.3,0,25.95,0,1.35,0,2.82-1.81,2.84-5.25.05-10.6,0-15.95,0a1.8,1.8,0,0,1-1.81-1.8v-6.51H137.76c-4.56,0-6.12-1.63-6.11-6.27V134.38H102.58v17.19A245.5,245.5,0,0,1,76.7,151.69Zm95.71-7.32v-3.25c0-2.92,2.15-2.7,4.07-2.83a5.23,5.23,0,0,0,3.09-.18c0-.71.1-1.44.1-2.18q0-18.41,0-36.82c0-3.64-.27-3.89-4-3.89q-18.55,0-37.1,0c-3.56,0-3.85.27-3.85,3.8q0,26.49,0,53c0,3.44.38,3.82,3.87,3.83q15.9,0,31.8,0c.72,0,1.51.23,2.2-.57-.57.72-.12-1.91-.19-2.92ZM131.62,95.21c3.36-4.71,8.56-2.08,13-3.14,0-10.38,0-20.69,0-31,0-4.18-1.1-5.23-5.33-5.23H39.93c-4.18,0-5.26,1.07-5.26,5.3q0,30.84,0,61.67c0,4.48,1.06,5.51,5.63,5.51q44.22,0,88.45,0a4.67,4.67,0,0,0,2.8-.33V106.61ZM174.38,141v25.78c5,0,9.71,0,14.43,0,1,0,1.59-.32,1.59-1.42,0-8.06,0-16.12,0-24.37Zm5.37-1.42-.24.31h5.61v-.31Z"/><path class="cls-4" d="M102.81,151.88c1.86.53,3.73,1,5.59,1.58a4.29,4.29,0,0,1,2.79,2.14c-.19,2.93-13.86,2.65-20,2.71-7.08.07-23.27.22-23-3.25,2-2,4.79-2,7.26-2.78a4.93,4.93,0,0,0,1.31.36q12.07,0,24.16,0C101.63,152.65,102.44,152.79,102.81,151.88Z"/><path class="cls-3" d="M102.81,151.88c-.37.91-1.18.77-1.9.77q-12.07,0-24.16,0a4.93,4.93,0,0,1-1.31-.36,1.23,1.23,0,0,1,1.26-.59,245.5,245.5,0,0,0,25.88-.12l.23.07Z"/><path class="cls-3" d="M131.56,106.61c-12,0-71.47-.12-89.22,0-2.25,0-3.26-.52-3-2.93a33.62,33.62,0,0,0,0-5.85c-.19-2.21.63-2.86,2.83-2.84,13.29.09,88.46.19,89.47.26Z"/><path class="cls-5" d="M172.4,141.12c-11.34,0-23.34.18-34.84.18.05-4.13,0-2.87,0-7.9h38.05c0,3.59,0,3.48,0,5C173.69,138.57,172.38,138.2,172.4,141.12Z"/><path class="cls-3" d="M179.75,139.59h5.37v.31h-5.61Z"/><path class="cls-3" d="M139.44,72.78H75.58V62h63.86Z"/><path class="cls-5" d="M78.12,89.66c-1.75,0-2.59-.41-2.48-2.32a67.71,67.71,0,0,0,0-7c-.08-1.75.68-2.22,2.32-2.21q11.72.09,23.43,0c1.62,0,2.41.41,2.34,2.18-.11,2.41-.09,4.84,0,7.25.06,1.62-.64,2.09-2.17,2.06C97.55,89.58,81.93,89.57,78.12,89.66Z"/><path class="cls-3" d="M53.11,73.05c-3.81,0-7.63-.09-11.44,0-2,.06-2.63-.71-2.53-2.61.11-2.23.1-4.47,0-6.7-.07-1.72.42-2.55,2.33-2.53q11.87.11,23.73,0c1.76,0,2.25.71,2.19,2.34-.1,2.41-.11,4.84,0,7.25.07,1.72-.6,2.27-2.28,2.24C61.12,73,57.11,73.05,53.11,73.05Z"/><path class="cls-5" d="M125.26,89.63c-3.81,0-7.63-.06-11.44,0-1.75,0-2.58-.41-2.48-2.32a67.71,67.71,0,0,0,0-7c-.08-1.75.67-2.22,2.31-2.21q11.72.09,23.44,0c1.61,0,2.41.41,2.33,2.18-.1,2.41-.08,4.84,0,7.25,0,1.62-.65,2.09-2.17,2.06C133.26,89.58,129.26,89.63,125.26,89.63Z"/><path class="cls-3" d="M147.86,105.67c-2.82,0-5.64,0-8.45,0-1.48,0-1.94-.42-1.87-1.54a32.7,32.7,0,0,0,0-4c0-1,.31-1.51,1.73-1.5,5.83,0,11.67,0,17.51,0,1.3,0,1.66.41,1.62,1.38a40.93,40.93,0,0,0,0,4.29c0,1-.45,1.34-1.68,1.32C153.77,105.64,150.81,105.67,147.86,105.67Z"/><path class="cls-5" d="M152.64,121.92v6.46H137.56v-6.46Z"/><path class="cls-5" d="M175.61,121.92v6.46H160.53v-6.46Z"/><path class="cls-3" d="M137.56,116.89c0-1.43,0-2,0-5h38.05c0,2.46,0,2.15,0,5Z"/><path class="cls-3" d="M175.61,144.89v-2.15h13.64v2.15Z"/><path class="cls-3" d="M175.61,148.48v-2.15h13.64v2.15Z"/><path class="cls-3" d="M175.61,165v-2.15h13.64V165Z"/><path class="cls-5" d="M175.61,152.79v-2.16h13.64v2.16Z"/><path class="cls-5" d="M175.61,157.09v-2.15h13.64v2.15Z"/><path class="cls-5" d="M175.61,161.4v-2.15h13.64v2.15Z"/><path class="cls-5" d="M41.5,89.66c-1.74,0-2.58-.41-2.47-2.32.12-2.32.11-4.66,0-7-.08-1.75.67-2.22,2.31-2.21q11.71.09,23.44,0c1.62,0,2.41.41,2.33,2.18-.1,2.41-.08,4.84,0,7.25,0,1.62-.65,2.09-2.17,2.06C60.94,89.58,45.31,89.57,41.5,89.66Z"/></g></g></svg>